<?xml version="1.0" encoding="UTF-8" standalone="no"?>
<!-- Created with Inkscape (http://www.inkscape.org/) -->

<svg
   xmlns:dc="http://purl.org/dc/elements/1.1/"
   xmlns:cc="http://creativecommons.org/ns#"
   xmlns:rdf="http://www.w3.org/1999/02/22-rdf-syntax-ns#"
   xmlns:svg="http://www.w3.org/2000/svg"
   xmlns="http://www.w3.org/2000/svg"
   xmlns:sodipodi="http://sodipodi.sourceforge.net/DTD/sodipodi-0.dtd"
   xmlns:inkscape="http://www.inkscape.org/namespaces/inkscape"
   width="500"
   height="500"
   viewBox="0 0 132.29166 132.29167"
   version="1.1"
   id="svg8"
   inkscape:version="0.92.1 unknown"
   sodipodi:docname="facebook-logo.svg">
  <defs
     id="defs2" />
  <sodipodi:namedview
     id="base"
     pagecolor="#ffffff"
     bordercolor="#666666"
     borderopacity="1.0"
     inkscape:pageopacity="0.0"
     inkscape:pageshadow="2"
     inkscape:zoom="0.35"
     inkscape:cx="442.85714"
     inkscape:cy="251.42857"
     inkscape:document-units="mm"
     inkscape:current-layer="layer1"
     showgrid="false"
     units="px"
     inkscape:window-width="1301"
     inkscape:window-height="744"
     inkscape:window-x="65"
     inkscape:window-y="24"
     inkscape:window-maximized="1" />
  <metadata
     id="metadata5">
    <rdf:RDF>
      <cc:Work
         rdf:about="">
        <dc:format>image/svg+xml</dc:format>
        <dc:type
           rdf:resource="http://purl.org/dc/dcmitype/StillImage" />
        <dc:title></dc:title>
      </cc:Work>
    </rdf:RDF>
  </metadata>
  <g
     inkscape:label="Layer 1"
     inkscape:groupmode="layer"
     id="layer1"
     transform="translate(0,-164.70832)">
    <g
       id="g3827">
      <g
         transform="matrix(1.4631878,0,0,1.4631878,135.61786,166.52261)"
         id="g3683" />
      <g
         transform="matrix(1.4631878,0,0,1.4631878,135.61786,166.52261)"
         id="g3685" />
      <g
         transform="matrix(1.4631878,0,0,1.4631878,135.61786,166.52261)"
         id="g3687" />
      <g
         transform="matrix(1.4631878,0,0,1.4631878,135.61786,166.52261)"
         id="g3689" />
      <g
         transform="matrix(1.4631878,0,0,1.4631878,135.61786,166.52261)"
         id="g3691" />
      <g
         transform="matrix(1.4631878,0,0,1.4631878,135.61786,166.52261)"
         id="g3693" />
      <g
         transform="matrix(1.4631878,0,0,1.4631878,135.61786,166.52261)"
         id="g3695" />
      <g
         transform="matrix(1.4631878,0,0,1.4631878,135.61786,166.52261)"
         id="g3697" />
      <g
         transform="matrix(1.4631878,0,0,1.4631878,135.61786,166.52261)"
         id="g3699" />
      <g
         transform="matrix(1.4631878,0,0,1.4631878,135.61786,166.52261)"
         id="g3701" />
      <g
         transform="matrix(1.4631878,0,0,1.4631878,135.61786,166.52261)"
         id="g3703" />
      <g
         transform="matrix(1.4631878,0,0,1.4631878,135.61786,166.52261)"
         id="g3705" />
      <g
         transform="matrix(1.4631878,0,0,1.4631878,135.61786,166.52261)"
         id="g3707" />
      <g
         transform="matrix(1.4631878,0,0,1.4631878,135.61786,166.52261)"
         id="g3709" />
      <g
         transform="matrix(1.4631878,0,0,1.4631878,135.61786,166.52261)"
         id="g3711" />
      <rect
         id="rect3743"
         width="77.863098"
         height="119.44048"
         x="43.089287"
         y="178.31548"
         style="fill:#ffffff;stroke-width:0.28604054" />
      <g
         id="g3681"
         transform="matrix(1.4631878,0,0,1.4631878,1.4363113,167.65653)">
        <path
           d="M 90,15.001 C 90,7.119 82.884,0 75,0 H 15 C 7.116,0 0,7.119 0,15.001 V 74.999 C 0,82.881 7.116,90 15.001,90 H 45 V 56 H 34 V 41 H 45 V 35.156 C 45,25.077 52.568,16 61.875,16 H 74 V 31 H 61.875 C 60.548,31 59,32.611 59,35.024 V 41 H 74 V 56 H 59 v 34 h 16 c 7.884,0 15,-7.119 15,-15.001 z"
           id="Facebook__x28_alt_x29_"
           inkscape:connector-curvature="0"
           style="fill:#3f00ff" />
      </g>
    </g>
  </g>
</svg>
