<?xml version="1.0" encoding="UTF-8" standalone="no"?>
<!-- Generator: Adobe Illustrator 16.0.0, SVG Export Plug-In . SVG Version: 6.00 Build 0)  -->

<svg
   xmlns:dc="http://purl.org/dc/elements/1.1/"
   xmlns:cc="http://creativecommons.org/ns#"
   xmlns:rdf="http://www.w3.org/1999/02/22-rdf-syntax-ns#"
   xmlns:svg="http://www.w3.org/2000/svg"
   xmlns="http://www.w3.org/2000/svg"
   xmlns:sodipodi="http://sodipodi.sourceforge.net/DTD/sodipodi-0.dtd"
   xmlns:inkscape="http://www.inkscape.org/namespaces/inkscape"
   version="1.1"
   id="Capa_1"
   x="0px"
   y="0px"
   width="500"
   height="500"
   viewBox="0 0 428.25781 428.25781"
   xml:space="preserve"
   sodipodi:docname="github-sign.svg"
   inkscape:version="0.92.1 unknown"><metadata
     id="metadata57"><rdf:RDF><cc:Work
         rdf:about=""><dc:format>image/svg+xml</dc:format><dc:type
           rdf:resource="http://purl.org/dc/dcmitype/StillImage" /><dc:title></dc:title></cc:Work></rdf:RDF></metadata><defs
     id="defs55" /><sodipodi:namedview
     pagecolor="#ffffff"
     bordercolor="#666666"
     borderopacity="1"
     objecttolerance="10"
     gridtolerance="10"
     guidetolerance="10"
     inkscape:pageopacity="0"
     inkscape:pageshadow="2"
     inkscape:window-width="1301"
     inkscape:window-height="744"
     id="namedview53"
     showgrid="false"
     inkscape:zoom="0.4609375"
     inkscape:cx="256"
     inkscape:cy="256"
     inkscape:window-x="65"
     inkscape:window-y="24"
     inkscape:window-maximized="1"
     inkscape:current-layer="Capa_1" /><g
     id="g3776"><g
       transform="matrix(0.97457621,0,0,0.97457633,0,0.87103327)"
       id="g20"><g
         id="g18"><path
           style="fill:#3f00ff"
           inkscape:connector-curvature="0"
           id="path2"
           d="m 158.173,352.599 c -3.049,0.568 -4.381,1.999 -3.999,4.281 0.38,2.283 2.093,3.046 5.138,2.283 3.049,-0.76 4.38,-2.095 3.997,-3.997 -0.378,-2.092 -2.091,-2.95 -5.136,-2.567 z" /><path
           style="fill:#3f00ff"
           inkscape:connector-curvature="0"
           id="path4"
           d="m 141.898,354.885 c -3.046,0 -4.568,1.041 -4.568,3.139 0,2.474 1.619,3.518 4.853,3.138 3.046,0 4.57,-1.047 4.57,-3.138 0,-2.471 -1.619,-3.522 -4.855,-3.139 z" /><path
           style="fill:#3f00ff"
           inkscape:connector-curvature="0"
           id="path6"
           d="m 119.629,354.022 c -0.76,2.095 0.478,3.519 3.711,4.284 2.855,1.137 4.664,0.568 5.424,-1.714 0.572,-2.091 -0.666,-3.61 -3.711,-4.568 -2.856,-0.759 -4.663,-0.102 -5.424,1.998 z" /><path
           style="fill:#3f00ff"
           inkscape:connector-curvature="0"
           id="path10"
           d="m 86.793,319.195 c -1.331,0.948 -1.141,2.471 0.572,4.565 1.906,1.902 3.427,2.189 4.57,0.855 1.331,-0.948 1.141,-2.471 -0.575,-4.569 -1.902,-1.71 -3.424,-1.997 -4.567,-0.851 z" /><path
           style="fill:#3f00ff"
           inkscape:connector-curvature="0"
           id="path12"
           d="m 77.374,312.057 c -0.57,1.335 0.096,2.478 1.999,3.426 1.521,0.955 2.762,0.767 3.711,-0.568 0.57,-1.335 -0.096,-2.478 -1.999,-3.433 -1.903,-0.572 -3.14,-0.38 -3.711,0.575 z" /><path
           style="fill:#3f00ff"
           inkscape:connector-curvature="0"
           id="path14"
           d="m 95.646,330.331 c -1.715,0.948 -1.715,2.666 0,5.137 1.713,2.478 3.328,3.142 4.853,1.998 1.714,-1.334 1.714,-3.142 0,-5.427 -1.521,-2.468 -3.14,-3.046 -4.853,-1.708 z" /><path
           style="fill:#3f00ff"
           inkscape:connector-curvature="0"
           id="path16"
           d="m 105.641,343.174 c -1.714,1.526 -1.336,3.327 1.142,5.428 2.281,2.279 4.185,2.566 5.708,0.849 1.524,-1.519 1.143,-3.326 -1.142,-5.42 -2.281,-2.28 -4.185,-2.568 -5.708,-0.857 z" /></g></g><g
       transform="translate(0,-10.278187)"
       id="g22" /><g
       transform="translate(0,-10.278187)"
       id="g24" /><g
       transform="translate(0,-10.278187)"
       id="g26" /><g
       transform="translate(0,-10.278187)"
       id="g28" /><g
       transform="translate(0,-10.278187)"
       id="g30" /><g
       transform="translate(0,-10.278187)"
       id="g32" /><g
       transform="translate(0,-10.278187)"
       id="g34" /><g
       transform="translate(0,-10.278187)"
       id="g36" /><g
       transform="translate(0,-10.278187)"
       id="g38" /><g
       transform="translate(0,-10.278187)"
       id="g40" /><g
       transform="translate(0,-10.278187)"
       id="g42" /><g
       transform="translate(0,-10.278187)"
       id="g44" /><g
       transform="translate(0,-10.278187)"
       id="g46" /><g
       transform="translate(0,-10.278187)"
       id="g48" /><g
       transform="translate(0,-10.278187)"
       id="g50" /><rect
       style="stroke-width:0.81949884;fill:#ffffff"
       y="82.631989"
       x="56.627316"
       height="344.55496"
       width="315.01334"
       id="rect3731" /><path
       style="fill:#3f00ff;stroke-width:0.97457623"
       inkscape:connector-curvature="0"
       id="path8"
       d="M 404.41109,23.589092 C 388.73601,7.9169298 369.86627,0.07938586 347.78724,0.07938586 H 80.671489 c -22.072202,0 -40.948768,7.83754394 -56.624825,23.50970614 C 8.3745038,39.264178 0.53696074,58.140748 0.53696074,80.213927 V 347.33361 c 0,22.07416 7.83754306,40.94878 23.50970326,56.62095 15.675083,15.67508 34.552623,23.51263 56.624825,23.51263 h 62.327081 c 4.07763,0 7.14072,-0.14034 9.18051,-0.41323 2.03881,-0.28067 4.07762,-1.4872 6.11936,-3.6225 2.04271,-2.13139 3.06017,-5.23932 3.06017,-9.31889 0,-0.55356 -0.0487,-6.86687 -0.14034,-18.92336 -0.0945,-12.06038 -0.14034,-21.6122 -0.14034,-28.66229 l -6.40004,1.11394 c -4.08055,0.74068 -9.22826,1.06717 -15.44314,0.9736 -6.21194,-0.0935 -12.65974,-0.74067 -19.33656,-1.9472 -6.68072,-1.2075 -12.89267,-3.98894 -18.64364,-8.34432 -5.748053,-4.36318 -9.828616,-10.06543 -12.240687,-17.11258 l -2.783387,-6.40395 c -1.854623,-4.26182 -4.774453,-8.99436 -8.763393,-14.18398 -3.988941,-5.19645 -8.022711,-8.72149 -12.103262,-10.5761 l -1.948178,-1.3917 c -1.297161,-0.92682 -2.502712,-2.04466 -3.616652,-3.34182 -1.111991,-1.30106 -1.946229,-2.60115 -2.502711,-3.89538 -0.556484,-1.30106 -0.09454,-2.36822 1.39072,-3.20539 1.485253,-0.83326 4.17216,-1.24648 8.06949,-1.24648 l 5.562882,0.83326 c 3.711185,0.74068 8.29949,2.96467 13.774659,6.67683 5.471274,3.70924 9.968936,8.53144 13.493988,14.46564 4.268651,7.60753 9.411481,13.40042 15.443141,17.38936 6.02677,3.99284 12.10326,5.98682 18.2236,5.98682 6.12033,0 11.40643,-0.46389 15.86024,-1.38779 4.44895,-0.92975 8.62306,-2.32437 12.52039,-4.17898 1.66945,-12.42683 6.21487,-21.98548 13.63237,-28.6623 -10.57221,-1.11394 -20.07822,-2.78144 -28.52097,-5.00932 -8.43789,-2.22788 -17.15741,-5.84258 -26.15275,-10.85288 -8.99924,-5.00933 -16.4645,-11.21932 -22.400642,-18.64365 -5.935173,-7.42432 -10.806103,-17.16229 -14.605977,-29.21585 -3.801821,-12.06038 -5.703219,-25.97441 -5.703219,-41.74013 0,-22.44352 7.329787,-41.55301 21.983527,-57.31874 -6.864924,-16.87966 -6.216823,-35.79815 1.946231,-56.761275 5.37965,-1.67042 13.35754,-0.417115 23.92974,3.756994 10.57415,4.17703 18.31618,7.748851 23.23389,10.712541 4.91771,2.96465 8.85793,5.47126 11.82649,7.51398 17.25487,-4.82318 35.06135,-7.23428 53.42431,-7.23428 18.36199,0 36.1714,2.4111 53.42725,7.23428 l 10.57318,-6.6778 c 7.23719,-4.453811 15.76864,-8.53436 25.60114,-12.242618 9.83152,-3.709244 17.34258,-4.730596 22.53902,-3.060177 8.34432,20.963135 9.09085,39.881625 2.22105,56.760305 14.65373,15.76768 21.98547,34.8762 21.98547,57.31972 0,15.76864 -1.9014,29.72945 -5.70322,41.87656 -3.7989,12.15005 -8.71174,21.89192 -14.74533,29.21878 -6.02679,7.32784 -13.54077,13.49106 -22.53611,18.50331 -8.99729,5.00639 -17.71584,8.62792 -26.15762,10.84898 -8.44081,2.22788 -17.94585,3.9022 -28.51902,5.01615 9.63953,8.34432 14.46173,21.51085 14.46173,39.50737 v 66.50314 c 0,3.15471 0.46,5.70323 1.3878,7.6514 0.93364,1.94721 2.41499,3.28822 4.45479,4.03573 2.04856,0.74067 3.84859,1.2036 5.42936,1.38779 1.58076,0.18615 3.8486,0.2797 6.81716,0.2797 h 62.32707 c 22.0722,0 40.94975,-7.83754 56.618,-23.51263 15.67509,-15.67508 23.51263,-34.55262 23.51263,-56.62483 V 80.213927 c -0.002,-22.073179 -7.83949,-40.952673 -23.51165,-56.624835 z" /></g></svg>