<?xml version="1.0" encoding="UTF-8" standalone="no"?>
<!-- Generator: Adobe Illustrator 19.0.0, SVG Export Plug-In . SVG Version: 6.00 Build 0)  -->

<svg
   xmlns:dc="http://purl.org/dc/elements/1.1/"
   xmlns:cc="http://creativecommons.org/ns#"
   xmlns:rdf="http://www.w3.org/1999/02/22-rdf-syntax-ns#"
   xmlns:svg="http://www.w3.org/2000/svg"
   xmlns="http://www.w3.org/2000/svg"
   xmlns:sodipodi="http://sodipodi.sourceforge.net/DTD/sodipodi-0.dtd"
   xmlns:inkscape="http://www.inkscape.org/namespaces/inkscape"
   version="1.1"
   id="Capa_1"
   x="0px"
   y="0px"
   viewBox="0 0 486.392 486.392"
   style="enable-background:new 0 0 486.392 486.392;"
   xml:space="preserve"
   width="512px"
   height="512px"
   sodipodi:docname="twitter-logo.svg"
   inkscape:version="0.92.1 unknown"><metadata
     id="metadata75"><rdf:RDF><cc:Work
         rdf:about=""><dc:format>image/svg+xml</dc:format><dc:type
           rdf:resource="http://purl.org/dc/dcmitype/StillImage" /><dc:title></dc:title></cc:Work></rdf:RDF></metadata><defs
     id="defs73" /><sodipodi:namedview
     pagecolor="#ffffff"
     bordercolor="#666666"
     borderopacity="1"
     objecttolerance="10"
     gridtolerance="10"
     guidetolerance="10"
     inkscape:pageopacity="0"
     inkscape:pageshadow="2"
     inkscape:window-width="1301"
     inkscape:window-height="744"
     id="namedview71"
     showgrid="false"
     inkscape:zoom="0.4609375"
     inkscape:cx="256"
     inkscape:cy="256"
     inkscape:window-x="65"
     inkscape:window-y="24"
     inkscape:window-maximized="1"
     inkscape:current-layer="Capa_1" /><g
     id="g132"><g
       id="g38"><g
         id="g6"><g
           id="g4" /></g><g
         id="g8" /><g
         id="g10" /><g
         id="g12" /><g
         id="g14" /><g
         id="g16" /><g
         id="g18" /><g
         id="g20" /><g
         id="g22" /><g
         id="g24" /><g
         id="g26" /><g
         id="g28" /><g
         id="g30" /><g
         id="g32" /><g
         id="g34" /><g
         id="g36" /></g><g
       id="g40" /><g
       id="g42" /><g
       id="g44" /><g
       id="g46" /><g
       id="g48" /><g
       id="g50" /><g
       id="g52" /><g
       id="g54" /><g
       id="g56" /><g
       id="g58" /><g
       id="g60" /><g
       id="g62" /><g
       id="g64" /><g
       id="g66" /><g
       id="g68" /><rect
       y="103.04916"
       x="103.04916"
       height="282.35468"
       width="296.78156"
       id="rect80"
       style="fill:#ffffff;stroke-width:0.94998437" /><path
       id="path2"
       d="M 399.31547,-2.0604793 H 95.320466 c -50.371999,0 -91.1979995,40.8260003 -91.1979995,91.1980003 V 393.13253 c 0,50.372 40.8260005,91.19799 91.1979995,91.19799 H 399.31547 c 50.372,0 91.19799,-40.827 91.19799,-91.19799 V 89.137521 c 10e-4,-50.372 -40.82599,-91.1980003 -91.19799,-91.1980003 z m -31.00701,188.5979993 0.182,7.752 c 0,79.16 -60.221,170.35901 -170.35899,170.35901 -33.804,0 -65.268,-9.91001 -91.776,-26.90401 4.682,0.547 9.454,0.851 14.288,0.851 28.059,0 53.868,-9.576 74.357,-25.627 -26.204,-0.486 -48.305,-17.814 -55.935,-41.586 3.678,0.66901 7.387,1.034 11.278,1.034 5.472,0 10.761,-0.699 15.777,-2.067 -27.39,-5.533 -48.031,-29.7 -48.031,-58.701 v -0.76 c 8.086,4.499 17.29701,7.174 27.116,7.509 -16.051,-10.73099 -26.63,-29.062 -26.63,-49.825 0,-10.974 2.949,-21.249 8.086,-30.095 29.518,36.236 73.65801,60.069 123.422,62.562 -1.03401,-4.378 -1.55001,-8.968 -1.55001,-13.649 0,-33.044 26.812,-59.857 59.887,-59.857 17.206,0 32.771,7.265 43.714,18.908 13.619,-2.706 26.44801,-7.691 38.03001,-14.531 -4.46901,13.984 -13.953,25.718 -26.32601,33.135 12.069,-1.429 23.651,-4.682 34.38201,-9.424 -8.02501,11.977 -18.20901,22.526 -29.91201,30.916 z"
       style="fill:#3f00ff;stroke-width:1"
       inkscape:connector-curvature="0" /></g></svg>